<?xml version="1.0" encoding="UTF-8"?>
<svg id="Layer_1" data-name="Layer 1" xmlns="http://www.w3.org/2000/svg" viewBox="0 0 136.06 136.06">
  <defs>
    <style>
      .cls-1 {
        fill: #fff;
      }

      .cls-2 {
        fill: #d8e6d1;
      }

      .cls-3 {
        fill: #76bb50;
      }

      .cls-4 {
        fill: #008a9c;
      }
    </style>
  </defs>
  <rect class="cls-1" x="4.48" y="3.66" width="126.84" height="129.64" rx="28.35" ry="28.35"/>
  <g>
    <path class="cls-4" d="M106.58,43.75l-.05,52.4c0,4.92-5.37,7.96-9.59,5.44l-9.89-5.92.04-29.76c0-1.48-.97-4.85-2.56-5.62l-16.58-10.03.21-20.54c.02-2.05.75-4.03,2.06-5.6.76-.91,1.88-1.45,3.07-1.48l1.01-.03c1.66-.04,3.29.4,4.7,1.27l25.02,15.29c1.59.98,2.56,2.71,2.56,4.58Z"/>
    <path class="cls-3" d="M84.53,60.29l-16.58-10.03-8.44-5.1c-1.41-.68-3.04-1.03-4.69-1l-1.02.02c-1.19.03-2.31.45-3.07,1.18-1.31,1.25-2.04,2.82-2.06,4.44l-.33,23.11,15.45,8.93c2.72,1.58,4.4,4.49,4.4,7.64v11.62l9.26,5.65c4.22,2,9.59-.41,9.59-4.31v-6.77s.05-29.76.05-29.76c0-1.48-.97-4.85-2.56-5.62Z"/>
    <path class="cls-2" d="M63.79,81.84l-15.45-8.93-7.82-4.52c-1.49-.86-3.17-1.31-4.88-1.31h-.54c-1.52,0-2.96.67-3.93,1.84-1.09,1.31-1.69,2.96-1.69,4.67v18.8c0,1.67.88,3.21,2.31,4.06l27.2,16.14c4.06,2.41,9.2-.51,9.2-5.24v-17.87c0-3.15-1.68-6.06-4.4-7.64Z"/>
  </g>
</svg>