<?xml version="1.0" encoding="UTF-8"?>
<svg id="Layer_1" data-name="Layer 1" xmlns="http://www.w3.org/2000/svg" viewBox="0 0 339.38 107.72">
  <defs>
    <style>
      .cls-1 {
        fill: #0b1524;
      }

      .cls-2 {
        fill: #d8e6d1;
      }

      .cls-3 {
        fill: #76bb50;
      }

      .cls-4 {
        fill: #008a9c;
      }
    </style>
  </defs>
  <path class="cls-4" d="M98.86,29.58l-.05,52.4c0,4.92-5.37,7.96-9.59,5.44l-9.89-5.92.04-29.76c0-1.48-.97-4.85-2.56-5.62l-16.58-10.03.21-20.54c.02-2.05.75-4.03,2.06-5.6.76-.91,1.88-1.45,3.07-1.48l1.01-.03c1.66-.04,3.29.4,4.7,1.27l25.02,15.29c1.59.98,2.56,2.71,2.56,4.58Z"/>
  <path class="cls-3" d="M76.81,46.12l-16.58-10.03-8.44-5.1c-1.41-.68-3.04-1.03-4.69-1l-1.02.02c-1.19.03-2.31.45-3.07,1.18-1.31,1.25-2.04,2.82-2.06,4.44l-.33,23.11,15.45,8.93c2.72,1.58,4.4,4.49,4.4,7.64v11.62l9.26,5.65c4.22,2,9.59-.41,9.59-4.31v-6.77s.05-29.76.05-29.76c0-1.48-.97-4.85-2.56-5.62Z"/>
  <path class="cls-2" d="M56.07,67.67l-15.45-8.93-7.82-4.52c-1.49-.86-3.17-1.31-4.88-1.31h-.54c-1.52,0-2.96.67-3.93,1.84-1.09,1.31-1.69,2.96-1.69,4.67v18.8c0,1.67.88,3.21,2.31,4.06l27.2,16.14c4.06,2.41,9.2-.51,9.2-5.24v-17.87c0-3.15-1.68-6.06-4.4-7.64Z"/>
  <g>
    <path class="cls-1" d="M114.23,68.03v-31.9h20.34v4.82h-14.64v9.42h13.38v4.64h-13.38v13.02h-5.71Z"/>
    <path class="cls-1" d="M136.04,61.33c0-4.16,3.21-6.66,8.91-7.01l6.19-.35v-1.68c0-2.45-1.66-3.87-4.38-3.87s-4.27,1.26-4.62,3.21h-5.11c.24-4.38,3.98-7.52,9.95-7.52s9.6,3.07,9.6,7.78v16.14h-5.31v-3.74h-.11c-1.35,2.54-4.29,4.11-7.3,4.11-4.53,0-7.83-2.85-7.83-7.08ZM151.14,59.34v-1.79l-5.42.33c-2.65.18-4.18,1.37-4.18,3.23s1.59,3.14,3.98,3.14c3.12,0,5.62-2.08,5.62-4.91Z"/>
    <path class="cls-1" d="M161,44.59h5.28v4.09h.11c.8-2.85,2.85-4.49,5.62-4.49.71,0,1.33.13,1.72.22v4.97c-.46-.18-1.3-.31-2.23-.31-3.12,0-5,2.01-5,5.31v13.64h-5.5v-23.44Z"/>
    <path class="cls-1" d="M176.57,44.59h5.28v4.07h.11c1.02-2.72,3.49-4.51,6.68-4.51s5.68,1.7,6.54,4.71h.13c1.13-2.9,3.91-4.71,7.3-4.71,4.62,0,7.65,3.12,7.65,7.81v16.07h-5.51v-14.73c0-2.87-1.5-4.51-4.2-4.51s-4.47,1.95-4.47,4.75v14.48h-5.35v-15.01c0-2.61-1.59-4.22-4.16-4.22s-4.51,2.06-4.51,4.89v14.35h-5.51v-23.44Z"/>
    <path class="cls-1" d="M236.45,68.03v-13.84h-15.52v13.84h-5.71v-31.9h5.71v13.27h15.52v-13.27h5.68v31.9h-5.68Z"/>
    <path class="cls-1" d="M245.73,61.33c0-4.16,3.21-6.66,8.91-7.01l6.19-.35v-1.68c0-2.45-1.66-3.87-4.38-3.87s-4.27,1.26-4.62,3.21h-5.11c.24-4.38,3.98-7.52,9.95-7.52s9.6,3.07,9.6,7.78v16.14h-5.31v-3.74h-.11c-1.35,2.54-4.29,4.11-7.3,4.11-4.53,0-7.83-2.85-7.83-7.08ZM260.83,59.34v-1.79l-5.42.33c-2.65.18-4.18,1.37-4.18,3.23s1.59,3.14,3.98,3.14c3.12,0,5.62-2.08,5.62-4.91Z"/>
    <path class="cls-1" d="M270.69,44.59h5.28v4.02h.11c1.26-2.79,3.76-4.47,7.36-4.47,5.17,0,8.11,3.32,8.11,8.73v15.15h-5.5v-14.04c0-3.32-1.55-5.17-4.69-5.17s-5.17,2.28-5.17,5.64v13.58h-5.51v-23.44Z"/>
    <path class="cls-1" d="M295,56.29c0-7.41,3.83-12.09,9.73-12.09,3.36,0,6.01,1.75,7.25,4.33h.13v-12.4h5.51v31.9h-5.4v-4h-.09c-1.28,2.63-3.98,4.38-7.41,4.38-5.9,0-9.73-4.67-9.73-12.12ZM300.64,56.31c0,4.67,2.19,7.58,5.75,7.58s5.75-2.94,5.75-7.58-2.28-7.58-5.75-7.58-5.75,2.94-5.75,7.58Z"/>
  </g>
</svg>